# xmcd CD database file
#
# Track frame offsets:
#	150
#	24734
#	38011
#	49992
#	62864
#	74655
#	86993
#	100675
#	119100
#	135329
#	149059
#	162024
#	173684
#	201727
#	216942
#	231191
#	246733
#	262902
#	279431
#	292567
#	309552
#	325472
#	337957
#
# Disc length: 4713 seconds
#
# Revision: 0
# Processed by: cddbd v1.5.2PL0 Copyright (c) Steve Scherf et al.
# Submitted via: CDex 1.70beta2
#
DISCID=6d126717
DTITLE=Roy Orbison - Greatest Hits
DYEAR=1999
DGENRE=Country
TTITLE0=Move On Down The Line - Roy Orbison
TTITLE1=I Cant Help It - Roy Orbison
TTITLE2=Blue Bayou - Roy Orbison
TTITLE3=Ruby Dooby - Roy Orbison
TTITLE4=Only The Lonely - Roy Orbison
TTITLE5=It's Over - Roy Orbison
TTITLE6=Claudith - Roy Orbison
TTITLE7=Lovin' You Feeling With You - Roy Orbison
TTITLE8=Anything You Want - Roy Orbison
TTITLE9=Crying Over You - Roy Orbison
TTITLE10=Walk On - Roy Orbison
TTITLE11=Running Scared - Roy Orbison
TTITLE12=Pretty Woman (mit Einlage) - Roy Orbison
TTITLE13=Drinkin' In My Sunday Dress - Susan Haynes
TTITLE14=Drunker Than Me - Trent Tomlinson
TTITLE15=I'm In The Mood - Alabama
TTITLE16=Photograph - Malibu Storm
TTITLE17=Swinging Door - Joey Daniels
TTITLE18=Steady At The Wheel - Shooter Jennings
TTITLE19=Trying To Love You - Trisha Yearwood
TTITLE20=Patrick Meet The Brickbats - Jerry Douglas
TTITLE21=I Think I'll Stay - Kevin Sharp
TTITLE22=Your Man - Josh Turner
EXTD=YEAR: 1999
EXTT0=
EXTT1=
EXTT2=
EXTT3=
EXTT4=
EXTT5=
EXTT6=
EXTT7=
EXTT8=
EXTT9=
EXTT10=
EXTT11=
EXTT12=
EXTT13=
EXTT14=
EXTT15=
EXTT16=
EXTT17=
EXTT18=
EXTT19=
EXTT20=
EXTT21=
EXTT22=
PLAYORDER=
